<?xml version="1.0" encoding="UTF-8" standalone="no"?>
<!-- Created with Inkscape (http://www.inkscape.org/) -->

<svg
   id="svg13154"
   sodipodi:docname="box-add-from-search.svg"
   viewBox="0 0 300 299.99999"
   version="1.1"
   inkscape:version="1.2.2 (b0a8486541, 2022-12-01)"
   width="300"
   height="300"
   xml:space="preserve"
   xmlns:inkscape="http://www.inkscape.org/namespaces/inkscape"
   xmlns:sodipodi="http://sodipodi.sourceforge.net/DTD/sodipodi-0.dtd"
   xmlns:xlink="http://www.w3.org/1999/xlink"
   xmlns="http://www.w3.org/2000/svg"
   xmlns:svg="http://www.w3.org/2000/svg"
   xmlns:rdf="http://www.w3.org/1999/02/22-rdf-syntax-ns#"
   xmlns:cc="http://creativecommons.org/ns#"
   xmlns:dc="http://purl.org/dc/elements/1.1/"><defs
     id="defs67"><inkscape:perspective
       sodipodi:type="inkscape:persp3d"
       inkscape:vp_x="0 : 24 : 1"
       inkscape:vp_y="0 : 1000 : 0"
       inkscape:vp_z="48 : 24 : 1"
       inkscape:persp3d-origin="24 : 16 : 1"
       id="perspective104" /><linearGradient
       inkscape:collect="always"
       id="linearGradient5060"><stop
         style="stop-color:black;stop-opacity:1;"
         offset="0"
         id="stop5062" /><stop
         style="stop-color:black;stop-opacity:0;"
         offset="1"
         id="stop5064" /></linearGradient><linearGradient
       id="linearGradient5048"><stop
         style="stop-color:black;stop-opacity:0;"
         offset="0"
         id="stop5050" /><stop
         id="stop5056"
         offset="0.5"
         style="stop-color:black;stop-opacity:1;" /><stop
         style="stop-color:black;stop-opacity:0;"
         offset="1"
         id="stop5052" /></linearGradient><linearGradient
       id="linearGradient2555"><stop
         id="stop2557"
         offset="0"
         style="stop-color:#ffffff;stop-opacity:1;" /><stop
         style="stop-color:#e6e6e6;stop-opacity:1.0000000;"
         offset="0.50000000"
         id="stop2561" /><stop
         id="stop2563"
         offset="0.75000000"
         style="stop-color:#ffffff;stop-opacity:1.0000000;" /><stop
         style="stop-color:#e1e1e1;stop-opacity:1.0000000;"
         offset="0.84166664"
         id="stop2565" /><stop
         id="stop2559"
         offset="1.0000000"
         style="stop-color:#ffffff;stop-opacity:1.0000000;" /></linearGradient><linearGradient
       id="linearGradient4274"><stop
         style="stop-color:#ffffff;stop-opacity:0.25490198;"
         offset="0.0000000"
         id="stop4276" /><stop
         style="stop-color:#ffffff;stop-opacity:1.0000000;"
         offset="1.0000000"
         id="stop4278" /></linearGradient><linearGradient
       id="linearGradient4244"><stop
         id="stop4246"
         offset="0.0000000"
         style="stop-color:#e4e4e4;stop-opacity:1.0000000;" /><stop
         id="stop4248"
         offset="1.0000000"
         style="stop-color:#d3d3d3;stop-opacity:1.0000000;" /></linearGradient><linearGradient
       id="linearGradient4228"><stop
         id="stop4230"
         offset="0.0000000"
         style="stop-color:#bbbbbb;stop-opacity:1.0000000;" /><stop
         id="stop4232"
         offset="1.0000000"
         style="stop-color:#9f9f9f;stop-opacity:1.0000000;" /></linearGradient><linearGradient
       id="linearGradient4184"><stop
         id="stop4186"
         offset="0.0000000"
         style="stop-color:#838383;stop-opacity:1.0000000;" /><stop
         id="stop4188"
         offset="1.0000000"
         style="stop-color:#bbbbbb;stop-opacity:0.0000000;" /></linearGradient><radialGradient
       gradientUnits="userSpaceOnUse"
       gradientTransform="matrix(1.000000,0.000000,0.000000,0.651032,-2.885063e-16,9.455693)"
       r="23.555494"
       fy="27.096155"
       fx="23.201941"
       cy="27.096155"
       cx="23.201941"
       id="radialGradient4270"
       xlink:href="#linearGradient5060"
       inkscape:collect="always" /><inkscape:perspective
       sodipodi:type="inkscape:persp3d"
       inkscape:vp_x="0 : 24 : 1"
       inkscape:vp_y="0 : 1000 : 0"
       inkscape:vp_z="48 : 24 : 1"
       inkscape:persp3d-origin="24 : 16 : 1"
       id="perspective104-3" /><radialGradient
       gradientUnits="userSpaceOnUse"
       gradientTransform="matrix(1.000000,0.000000,0.000000,0.651032,-2.885063e-16,9.455693)"
       r="23.555494"
       fy="27.096155"
       fx="23.201941"
       cy="27.096155"
       cx="23.201941"
       id="radialGradient4270-8"
       xlink:href="#linearGradient5060"
       inkscape:collect="always" /></defs><sodipodi:namedview
     id="base"
     bordercolor="#666666"
     inkscape:pageshadow="2"
     inkscape:window-y="47"
     pagecolor="#ffffff"
     inkscape:window-height="685"
     inkscape:window-maximized="0"
     inkscape:zoom="1.1207642"
     inkscape:window-x="334"
     showgrid="false"
     borderopacity="1.0"
     inkscape:current-layer="layer1"
     inkscape:cx="-26.767449"
     inkscape:cy="152.12834"
     inkscape:window-width="932"
     inkscape:pageopacity="0.0"
     inkscape:document-units="px"
     inkscape:showpageshadow="2"
     inkscape:pagecheckerboard="0"
     inkscape:deskcolor="#d1d1d1" /><g
     id="layer1"
     inkscape:label="Layer 1"
     inkscape:groupmode="layer"
     transform="translate(-20.06201,-408.56534)"><g
       id="layer1-7"
       inkscape:label="Layer 1"
       transform="matrix(0.77805862,0,0,0.77805862,24.867821,-231.1945)"
       style="stroke-width:1.28525"><text
         id="text3042"
         style="line-height:0%;font-family:'Plantagenet Cherokee';fill:#000000;stroke-width:1.28525"
         xml:space="preserve"
         transform="translate(0,62.362)"
         y="733.42126"
         x="1016.2135">            </text><g
         id="g5042"
         transform="matrix(0.92193,0,0,0.92193,39.407,45.118)"
         style="stroke-width:1.28525"><g
           id="g5558"
           style="fill:#d5d5d5;stroke-width:1.28525"
           transform="matrix(0.94393,0,0,0.94393,14.85,31.044)"><path
             id="path3066"
             style="fill:#00aa88;stroke:#005544;stroke-width:7.38447;stroke-dasharray:none"
             d="m 108.32435,886.25333 c -10.802811,0 -20.505225,4.60166 -27.323682,11.92806 l -106.523617,86.43579 c -9.213444,10.5558 -14.811663,24.36042 -14.811663,39.46732 0,33.1787 26.921311,60.0791 60.12575,60.0791 22.107718,0 41.430322,-11.9403 51.8745,-29.7017 l 20.628563,-33.7564 37.773109,4.3252 -0.43955,0.9799 c -2.13966,6.1671 -3.31406,12.8047 -3.31406,19.7 0,33.1787 26.92131,60.0791 60.12575,60.0791 32.41719,0 58.82417,-25.6575 60.0584,-57.748 l 2.46855,-107.01773 c 0.14186,-1.32103 0.20293,-2.66242 0.20293,-4.02103 0,-0.80503 -0.0168,-1.60675 -0.068,-2.39907 l 0.0334,-1.72335 -0.16894,-0.0337 c -2.06469,-18.65556 -17.90993,-33.18214 -37.13106,-33.18214 -14.91576,0 -27.76455,8.75703 -33.74939,21.38956 h -0.0672 l -12.6476,27.40385 -24.71964,-6.35254 c 0.79006,-1.40092 1.53487,-2.81844 2.198,-4.29137 1.8189,-4.3925 2.80681,-9.21066 2.80681,-14.25913 0,-20.60904 -16.70894,-37.30412 -37.33313,-37.30412 z m -10.449424,9.09004 -64.62357,69.2023 -27.0533943,2.46672 83.1886643,-68.59483 8.48795,-3.07497 z m 94.452454,15.30711 -19.30948,77.98817 -21.64237,10.03575 35.54169,-83.395 5.41068,-4.62927 z M 19.797261,976.00262 c 26.563551,0 48.121069,21.54077 48.121069,48.08368 0,26.5429 -21.557518,48.0496 -48.121069,48.0496 -26.5635512,0 -48.086955,-21.5067 -48.086955,-48.0496 0,-26.54291 21.5234038,-48.08368 48.086955,-48.08368 z m 166.651989,21.62555 c 26.56355,0 48.12107,21.54073 48.12107,48.08373 0,26.5429 -21.55752,48.0496 -48.12107,48.0496 -26.56355,0 -48.08696,-21.5076 -48.08696,-48.0496 0,-26.543 21.52341,-48.08373 48.08696,-48.08373 z m -135.940508,4.08863 c -4.266543,28.9072 -21.414938,50.7346 -43.0485568,51.8342 -5.7698401,0.2934 -11.4168684,-0.8796 -16.6713224,-3.3452 7.484732,9.007 18.983212,14.4951 31.5844542,13.8535 21.223374,-1.0791 37.568425,-19.1389 36.488143,-40.3458 -0.425176,-8.3487 -3.50326,-15.9277 -8.35263,-21.9979 z m 166.651988,21.6255 c -4.26654,28.9072 -21.41494,50.7347 -43.04856,51.8342 -5.76984,0.2935 -11.41687,-0.8795 -16.67132,-3.3452 7.48464,9.007 18.98321,14.4951 31.58445,13.8545 21.22338,-1.0793 37.56843,-19.1389 36.48815,-40.3459 -0.42518,-8.3487 -3.50344,-15.9276 -8.35263,-21.9978 z" /></g></g><text
         id="text4266"
         style="line-height:0%;font-family:'Plantagenet Cherokee';fill:#000000;stroke-width:1.28525"
         xml:space="preserve"
         transform="translate(0,62.362)"
         y="748.57141"
         x="552.85712">            </text></g><path
       d="m 140.53949,590.61743 66.56625,16.76886 89.04355,-52.01489 -56.05084,-9.41277 z"
       style="fill:#502d16;fill-opacity:1;fill-rule:evenodd;stroke:none;stroke-width:2.01829"
       id="path3082-6"
       inkscape:connector-curvature="0" /><path
       d="m 140.53949,668.88674 66.56625,23.89495 89.04355,-74.12346 -56.05084,-13.4135 z"
       style="fill:#afafde;fill-opacity:1;fill-rule:evenodd;stroke:none;stroke-width:2.01829"
       id="path3076-1"
       inkscape:connector-curvature="0" /><path
       d="m 140.53949,590.61743 v 78.26931 l 99.55896,-63.64201 v -59.2861 z"
       style="fill:#353564;fill-opacity:1;fill-rule:evenodd;stroke:none;stroke-width:2.01829"
       id="path3078-2"
       inkscape:connector-curvature="0" /><path
       d="m 240.09845,545.95863 56.05084,9.41277 v 63.28683 l -56.05084,-13.4135 z"
       style="fill:#e9e9ff;fill-opacity:1;fill-rule:evenodd;stroke:none;stroke-width:2.01829"
       id="path3080-9"
       inkscape:connector-curvature="0" /><rect
       transform="matrix(0.76481584,-0.64424896,0.63939929,0.76887486,0,0)"
       y="663.55316"
       x="-198.93007"
       height="10.864835"
       width="12.548259"
       id="rect3243-3"
       style="fill:#ffffff;fill-opacity:0;fill-rule:nonzero;stroke:none;stroke-width:2.01831" /><path
       d="m 140.53949,590.61743 66.56625,16.76886 v 85.3954 l -66.56625,-23.89495 z"
       style="fill:#bc8000;fill-opacity:1;fill-rule:evenodd;stroke:none;stroke-width:2.01829"
       id="path3086-1"
       inkscape:connector-curvature="0" /><path
       id="path3256"
       sodipodi:nodetypes="cccccsccc"
       style="fill:#00ff00;fill-rule:evenodd;stroke:#008000;stroke-width:6.8"
       d="m 163.29916,497.61023 c 32.39453,38.17126 45.94964,64.49962 48.95332,84.18308 -11.01615,2.72482 -24.02924,-3.37067 -37.72875,-7.96892 19.53468,13.30168 38.45514,27.31156 57.17015,42.48496 20.16199,-19.2218 22.03025,-45.89655 29.0083,-71.60051 -4.13186,5.57089 -8.16538,12.53366 -12.30834,18.03901 -2.07431,2.7633 -4.26568,4.72165 -6.69575,5.10871 -6.96857,-33.49768 -23.60248,-61.37488 -47.04984,-85.28997 z" /><path
       d="m 207.10574,607.38629 v 85.3954 l 89.04355,-74.12346 V 555.3714 Z"
       style="fill:#dcb830;fill-opacity:1;fill-rule:evenodd;stroke:none;stroke-width:2.01829"
       id="path3084-9"
       inkscape:connector-curvature="0" /></g><metadata
     id="metadata64"><rdf:RDF><cc:Work><dc:format>image/svg+xml</dc:format><dc:type
           rdf:resource="http://purl.org/dc/dcmitype/StillImage" /><cc:license
           rdf:resource="http://creativecommons.org/publicdomain/zero/1.0/" /><dc:publisher><cc:Agent
             rdf:about="http://openclipart.org/"><dc:title>Openclipart</dc:title></cc:Agent></dc:publisher><dc:date>2011-05-24T03:26:12</dc:date><dc:description>Five colored index cards in colors typically sold at stationery stores.</dc:description><dc:source>https://openclipart.org/detail/140209/colored-index-cards-by-snifty</dc:source><dc:creator><cc:Agent><dc:title>snifty</dc:title></cc:Agent></dc:creator><dc:subject><rdf:Bag><rdf:li>Index cards</rdf:li><rdf:li>colored</rdf:li><rdf:li>colored index cards</rdf:li><rdf:li>index card</rdf:li><rdf:li>stationery</rdf:li></rdf:Bag></dc:subject></cc:Work><cc:License
         rdf:about="http://creativecommons.org/publicdomain/zero/1.0/"><cc:permits
           rdf:resource="http://creativecommons.org/ns#Reproduction" /><cc:permits
           rdf:resource="http://creativecommons.org/ns#Distribution" /><cc:permits
           rdf:resource="http://creativecommons.org/ns#DerivativeWorks" /></cc:License></rdf:RDF></metadata></svg>
