<?xml version="1.0" encoding="UTF-8" standalone="no"?>
<!-- Created with Inkscape (http://www.inkscape.org/) -->

<svg
   id="svg2"
   sodipodi:docname="search-delete.svg"
   viewBox="0 0 280 280"
   version="1.1"
   inkscape:version="1.2.2 (b0a8486541, 2022-12-01)"
   width="280"
   height="280"
   xmlns:inkscape="http://www.inkscape.org/namespaces/inkscape"
   xmlns:sodipodi="http://sodipodi.sourceforge.net/DTD/sodipodi-0.dtd"
   xmlns="http://www.w3.org/2000/svg"
   xmlns:svg="http://www.w3.org/2000/svg"
   xmlns:rdf="http://www.w3.org/1999/02/22-rdf-syntax-ns#"
   xmlns:cc="http://creativecommons.org/ns#"
   xmlns:dc="http://purl.org/dc/elements/1.1/">
  <defs
     id="defs14" />
  <sodipodi:namedview
     id="base"
     bordercolor="#666666"
     inkscape:pageshadow="2"
     inkscape:window-y="-8"
     pagecolor="#ffffff"
     inkscape:window-height="538"
     inkscape:window-maximized="1"
     inkscape:zoom="2.2415285"
     inkscape:window-x="-8"
     showgrid="false"
     borderopacity="1.0"
     inkscape:current-layer="g5558"
     inkscape:cx="146.32872"
     inkscape:cy="102.38549"
     showguides="true"
     inkscape:guide-bbox="true"
     inkscape:window-width="1024"
     inkscape:pageopacity="0.0"
     inkscape:document-units="px"
     inkscape:showpageshadow="2"
     inkscape:pagecheckerboard="0"
     inkscape:deskcolor="#d1d1d1" />
  <g
     id="layer1"
     inkscape:label="Layer 1"
     inkscape:groupmode="layer"
     transform="translate(-3.9705227,-800.51251)">
    <text
       id="text3042"
       style="line-height:0%;font-family:'Plantagenet Cherokee';fill:#000000"
       xml:space="preserve"
       transform="translate(0,62.362)"
       y="733.42126"
       x="1016.2135">            </text>
    <g
       id="g5042"
       transform="matrix(0.92193,0,0,0.92193,39.407,45.118)">
      <g
         id="g5558"
         style="fill:#d5d5d5"
         transform="matrix(0.94393,0,0,0.94393,14.85,31.044)">
        <path
           id="path3066"
           style="fill:#00aa88;stroke:#005544;stroke-width:5.74555;stroke-dasharray:none"
           d="m 102.86928,846.38549 c -10.802808,0 -20.505222,4.60166 -27.323679,11.92806 l -106.523617,86.43579 c -9.213444,10.5558 -14.811663,24.36042 -14.811663,39.46732 0,33.17874 26.921311,60.07914 60.12575,60.07914 22.107718,0 41.430322,-11.9403 51.8745,-29.7017 l 20.628563,-33.75644 37.773106,4.3252 -0.43955,0.9799 c -2.13966,6.1671 -3.31406,12.8047 -3.31406,19.70004 0,33.1787 26.92131,60.0791 60.12575,60.0791 32.41719,0 58.82417,-25.6575 60.0584,-57.748 l 2.46855,-107.01777 c 0.14186,-1.32103 0.20293,-2.66242 0.20293,-4.02103 0,-0.80503 -0.0168,-1.60675 -0.068,-2.39907 l 0.0334,-1.72335 -0.16894,-0.0337 c -2.06469,-18.65556 -17.90993,-33.18214 -37.13106,-33.18214 -14.91576,0 -27.76455,8.75703 -33.74939,21.38956 h -0.0672 l -12.6476,27.40385 -24.71964,-6.35254 c 0.79006,-1.40092 1.53487,-2.81844 2.198,-4.29137 1.8189,-4.3925 2.80681,-9.21066 2.80681,-14.25913 0,-20.60904 -16.70894,-37.30412 -37.33313,-37.30412 z m -10.449421,9.09004 -64.62357,69.2023 -27.05339422,2.46672 83.18866422,-68.59483 8.48795,-3.07497 z m 94.452451,15.30711 -19.30948,77.98817 -21.64237,10.03575 35.54169,-83.395 5.41068,-4.62927 z M 14.342194,936.13478 c 26.563551,0 48.121069,21.54077 48.121069,48.08368 0,26.54294 -21.557518,48.04964 -48.121069,48.04964 -26.563551,0 -48.086955,-21.5067 -48.086955,-48.04964 0,-26.54291 21.523404,-48.08368 48.086955,-48.08368 z m 166.651986,21.62555 c 26.56355,0 48.12107,21.54073 48.12107,48.08377 0,26.5429 -21.55752,48.0496 -48.12107,48.0496 -26.56355,0 -48.08696,-21.5076 -48.08696,-48.0496 0,-26.54304 21.52341,-48.08377 48.08696,-48.08377 z m -135.940505,4.08863 c -4.266543,28.9072 -21.414938,50.73464 -43.0485567,51.83424 -5.7698401,0.2934 -11.4168684,-0.8796 -16.6713223,-3.3452 7.4847319,9.007 18.9832119,14.4951 31.584454,13.8535 21.223374,-1.0791 37.568425,-19.1389 36.488143,-40.34584 -0.425176,-8.3487 -3.50326,-15.9277 -8.35263,-21.9979 z m 166.651985,21.6255 c -4.26654,28.90724 -21.41494,50.73474 -43.04856,51.83424 -5.76984,0.2935 -11.41687,-0.8795 -16.67132,-3.3452 7.48464,9.007 18.98321,14.4951 31.58445,13.8545 21.22338,-1.0793 37.56843,-19.1389 36.48815,-40.3459 -0.42518,-8.34874 -3.50344,-15.92764 -8.35263,-21.99784 z" />
        <g
           aria-label="X"
           transform="matrix(1.1088354,0,0,0.91235164,-59.309271,444.19694)"
           id="text934"
           style="font-weight:bold;font-size:306.831px;line-height:125%;font-family:'Nimbus Sans';-inkscape-font-specification:'Nimbus Sans Bold';letter-spacing:0px;word-spacing:0px;fill:#ff0000;stroke:#800000;stroke-width:17.1371">
          <path
             d="m 200.0971,640.54784 69.03697,-109.53867 h -53.38859 l -41.11535,73.63944 -39.27437,-73.63944 H 80.739842 L 148.85632,642.08199 78.285194,754.68896 h 53.388596 l 42.6495,-77.62824 42.95634,77.62824 h 54.61592 z"
             id="path2615"
             style="stroke-width:17.1371" />
        </g>
      </g>
    </g>
    <text
       id="text4266"
       style="line-height:0%;font-family:'Plantagenet Cherokee';fill:#000000"
       xml:space="preserve"
       transform="translate(0,62.362)"
       y="748.57141"
       x="552.85712">            </text>
  </g>
  <metadata
     id="metadata11">
    <rdf:RDF>
      <cc:Work>
        <dc:format>image/svg+xml</dc:format>
        <dc:type
           rdf:resource="http://purl.org/dc/dcmitype/StillImage" />
        <cc:license
           rdf:resource="http://creativecommons.org/publicdomain/zero/1.0/" />
        <dc:publisher>
          <cc:Agent
             rdf:about="http://openclipart.org/">
            <dc:title>Openclipart</dc:title>
          </cc:Agent>
        </dc:publisher>
        <dc:title>Binoculars</dc:title>
        <dc:date>2012-06-13T11:41:51</dc:date>
        <dc:description>binoculars icon</dc:description>
        <dc:source>https://openclipart.org/detail/170639/binoculars-by-last-dino-170639</dc:source>
        <dc:creator>
          <cc:Agent>
            <dc:title>Last-Dino</dc:title>
          </cc:Agent>
        </dc:creator>
        <dc:subject>
          <rdf:Bag>
            <rdf:li>b/w</rdf:li>
            <rdf:li>binocular</rdf:li>
            <rdf:li>binoculars</rdf:li>
            <rdf:li>birdwatching</rdf:li>
            <rdf:li>black</rdf:li>
            <rdf:li>bw</rdf:li>
            <rdf:li>find</rdf:li>
            <rdf:li>icon</rdf:li>
            <rdf:li>look</rdf:li>
            <rdf:li>looking</rdf:li>
            <rdf:li>mono</rdf:li>
            <rdf:li>monochrome</rdf:li>
            <rdf:li>optic</rdf:li>
            <rdf:li>search</rdf:li>
            <rdf:li>searching</rdf:li>
            <rdf:li>watching</rdf:li>
            <rdf:li>white</rdf:li>
          </rdf:Bag>
        </dc:subject>
      </cc:Work>
      <cc:License
         rdf:about="http://creativecommons.org/publicdomain/zero/1.0/">
        <cc:permits
           rdf:resource="http://creativecommons.org/ns#Reproduction" />
        <cc:permits
           rdf:resource="http://creativecommons.org/ns#Distribution" />
        <cc:permits
           rdf:resource="http://creativecommons.org/ns#DerivativeWorks" />
      </cc:License>
    </rdf:RDF>
  </metadata>
</svg>
