<?xml version="1.0" encoding="UTF-8" standalone="no"?>
<!-- Created with Inkscape (http://www.inkscape.org/) -->

<svg
   id="svg2"
   sodipodi:docname="searches.svg"
   viewBox="0 0 280 280"
   version="1.1"
   inkscape:version="1.2.2 (b0a8486541, 2022-12-01)"
   width="280"
   height="280"
   xmlns:inkscape="http://www.inkscape.org/namespaces/inkscape"
   xmlns:sodipodi="http://sodipodi.sourceforge.net/DTD/sodipodi-0.dtd"
   xmlns="http://www.w3.org/2000/svg"
   xmlns:svg="http://www.w3.org/2000/svg"
   xmlns:rdf="http://www.w3.org/1999/02/22-rdf-syntax-ns#"
   xmlns:cc="http://creativecommons.org/ns#"
   xmlns:dc="http://purl.org/dc/elements/1.1/">
  <defs
     id="defs14" />
  <sodipodi:namedview
     id="base"
     bordercolor="#666666"
     inkscape:pageshadow="2"
     inkscape:window-y="-8"
     pagecolor="#ffffff"
     inkscape:window-height="538"
     inkscape:window-maximized="1"
     inkscape:zoom="2.2415285"
     inkscape:window-x="-8"
     showgrid="false"
     borderopacity="1.0"
     inkscape:current-layer="g5558"
     inkscape:cx="146.32872"
     inkscape:cy="102.38549"
     showguides="true"
     inkscape:guide-bbox="true"
     inkscape:window-width="1024"
     inkscape:pageopacity="0.0"
     inkscape:document-units="px"
     inkscape:showpageshadow="2"
     inkscape:pagecheckerboard="0"
     inkscape:deskcolor="#d1d1d1" />
  <g
     id="layer1"
     inkscape:label="Layer 1"
     inkscape:groupmode="layer"
     transform="translate(-3.9705227,-800.51251)">
    <text
       id="text3042"
       style="line-height:0%;font-family:'Plantagenet Cherokee';fill:#000000"
       xml:space="preserve"
       transform="translate(0,62.362)"
       y="733.42126"
       x="1016.2135">            </text>
    <g
       id="g5042"
       transform="matrix(0.92193,0,0,0.92193,39.407,45.118)">
      <g
         id="g5558"
         style="fill:#d5d5d5"
         transform="matrix(0.94393,0,0,0.94393,14.85,31.044)">
        <g
           id="g1575"
           transform="translate(0.59261776,1.304806)">
          <path
             id="path3066-3-6"
             style="fill:#00aa88;stroke:#005544;stroke-width:5.74555;stroke-dasharray:none"
             d="m 50.596068,1004.5414 c -6.774737,0 -12.859392,2.8752 -17.135433,7.4528 l -66.803927,54.0061 c -5.778007,6.5954 -9.288806,15.2206 -9.288806,24.6597 0,20.7304 16.883103,37.5381 37.7065304,37.5381 13.8643667,0 25.9821096,-7.4605 32.5319376,-18.558 l 12.936749,-21.0914 23.688564,2.7025 -0.275652,0.6122 c -1.341844,3.8533 -2.07834,8.0005 -2.07834,12.3088 0,20.7304 16.883102,37.5382 37.706541,37.5382 20.329718,0 36.890268,-16.0312 37.664288,-36.0817 l 1.5481,-66.866 c 0.0889,-0.8253 0.12726,-1.6635 0.12726,-2.5124 0,-0.5029 -0.0105,-1.0038 -0.0427,-1.4989 l 0.021,-1.0768 -0.10593,-0.021 c -1.29484,-11.6561 -11.23182,-20.7325 -23.28593,-20.7325 -9.35409,0 -17.411918,5.4715 -21.165181,13.3645 h -0.0421 l -7.931662,17.1222 -15.502381,-3.9692 c 0.495471,-0.8753 0.962558,-1.761 1.378431,-2.6812 1.140682,-2.7446 1.760222,-5.755 1.760222,-8.9094 0,-12.8767 -10.478641,-23.308 -23.41264,-23.308 z m -6.553121,5.6796 -40.5272385,43.2384 -16.9659345,1.5412 52.169922,-42.8589 5.323033,-1.9212 z m 59.233773,9.564 -12.109515,48.7279 -13.572546,6.2705 22.289193,-52.1062 3.393178,-2.8924 z m -108.1984475,40.8328 c 16.6587395,0 30.1780615,13.4589 30.1780615,30.0433 0,16.5843 -13.519322,30.022 -30.1780615,30.022 -16.6587425,0 -30.1566665,-13.4377 -30.1566665,-30.022 0,-16.5844 13.497924,-30.0433 30.1566665,-30.0433 z m 104.5120995,13.512 c 16.658748,0 30.178058,13.4588 30.178058,30.0433 0,16.5842 -13.51931,30.0219 -30.178058,30.0219 -16.658742,0 -30.156676,-13.4382 -30.156676,-30.0219 0,-16.5845 13.497934,-30.0433 30.156676,-30.0433 z m -85.252072,2.5546 c -2.675668,18.0615 -13.42990685,31.6995 -26.996951,32.3866 -3.618428,0.1833 -7.159836,-0.5497 -10.45505,-2.0901 4.693883,5.6276 11.904901,9.0566 19.8074899,8.6557 13.3097701,-0.6742 23.5602071,-11.9582 22.8827291,-25.2084 -0.266641,-5.2164 -2.196993,-9.9519 -5.238164,-13.7446 z m 104.5121,13.5118 c -2.67567,18.0616 -13.42991,31.6997 -26.996951,32.3866 -3.618426,0.1834 -7.159849,-0.5495 -10.455054,-2.0901 4.693835,5.6277 11.904907,9.0567 19.807495,8.6565 13.30976,-0.6744 23.5602,-11.9582 22.88273,-25.2086 -0.26664,-5.2164 -2.19711,-9.9518 -5.23817,-13.7445 z" />
          <path
             id="path3066-3-6-5"
             style="fill:#00aa88;stroke:#005544;stroke-width:5.74555;stroke-dasharray:none"
             d="m 48.868796,984.88961 c -6.774736,0 -12.859391,-2.8752 -17.135432,-7.45279 l -66.803927,-54.0061 c -5.778007,-6.5954 -9.288806,-15.2206 -9.288806,-24.6597 0,-20.7304 16.883103,-37.5381 37.7065302,-37.5381 13.864367,0 25.9821098,7.4605 32.5319378,18.558 l 12.936749,21.0914 23.688568,-2.7025 -0.27566,-0.6122 c -1.34184,-3.8533 -2.07834,-8.0005 -2.07834,-12.3088 0,-20.7304 16.88311,-37.5382 37.70655,-37.5382 20.329714,0 36.890264,16.0312 37.664284,36.0817 l 1.5481,66.866 c 0.0889,0.8253 0.12726,1.6635 0.12726,2.5124 0,0.5029 -0.0105,1.0038 -0.0427,1.4989 l 0.021,1.0768 -0.10593,0.021 c -1.29484,11.6561 -11.23182,20.7325 -23.28593,20.7325 -9.35409,0 -17.411924,-5.4715 -21.165184,-13.3645 h -0.0421 l -7.93166,-17.1222 -15.50238,3.9692 c 0.49547,0.8753 0.96256,1.761 1.37843,2.6812 1.14068,2.7446 1.76022,5.755 1.76022,8.9094 0,12.8767 -10.47864,23.30799 -23.41264,23.30799 z m -6.55312,-5.67959 -40.5272378,-43.2384 -16.9659352,-1.5412 52.169922,42.8589 5.323033,1.9212 z m 59.233774,-9.564 -12.109514,-48.7279 -13.57255,-6.2705 22.2892,52.1062 3.393174,2.8924 z M -6.6489978,928.81322 c 16.6587388,0 30.1780608,-13.4589 30.1780608,-30.0433 0,-16.5843 -13.519322,-30.022 -30.1780608,-30.022 -16.6587432,0 -30.1566672,13.4377 -30.1566672,30.022 0,16.5844 13.497924,30.0433 30.1566672,30.0433 z m 104.5121038,-13.512 c 16.658744,0 30.178054,-13.4588 30.178054,-30.0433 0,-16.5842 -13.51931,-30.0219 -30.178054,-30.0219 -16.65875,0 -30.15668,13.4382 -30.15668,30.0219 0,16.5845 13.49793,30.0433 30.15668,30.0433 z m -85.252077,-2.5546 c -2.6756678,-18.0615 -13.42990684,-31.6995 -26.996951,-32.3866 -3.618428,-0.1833 -7.159836,0.5497 -10.45505,2.0901 4.693883,-5.6276 11.904901,-9.0566 19.8074902,-8.6557 13.30977,0.6742 23.5602068,11.9582 22.8827288,25.2084 -0.266641,5.2164 -2.196993,9.9519 -5.238164,13.7446 z m 104.512101,-13.5118 c -2.67567,-18.0616 -13.42991,-31.6997 -26.996954,-32.3866 -3.61842,-0.1834 -7.15985,0.5495 -10.45505,2.0901 4.69383,-5.6277 11.9049,-9.0567 19.80749,-8.6565 13.309764,0.6744 23.560204,11.9582 22.882734,25.2086 -0.26664,5.2164 -2.19711,9.9518 -5.23817,13.7445 z" />
          <path
             id="path3066-3-6-7"
             style="fill:#00aa88;stroke:#005544;stroke-width:5.74555;stroke-dasharray:none"
             d="m 158.79211,931.7465 c 6.77474,0 12.85939,2.8752 17.13543,7.45279 l 66.80393,54.00609 c 5.77801,6.5954 9.28881,15.22062 9.28881,24.65972 0,20.7304 -16.88311,37.5381 -37.70653,37.5381 -13.86437,0 -25.98211,-7.4605 -32.53194,-18.558 l -12.93675,-21.0914 -23.68857,2.7025 0.27566,0.6122 c 1.34184,3.8533 2.07834,8.0005 2.07834,12.3088 0,20.7304 -16.88311,37.5382 -37.70655,37.5382 -20.329707,0 -36.890257,-16.0312 -37.664277,-36.0817 l -1.5481,-66.86601 c -0.0889,-0.8253 -0.12726,-1.6635 -0.12726,-2.5124 0,-0.5029 0.0105,-1.0038 0.0427,-1.4989 l -0.021,-1.0768 0.10593,-0.021 c 1.29484,-11.6561 11.23182,-20.7325 23.28593,-20.7325 9.354087,0 17.411917,5.4715 21.165177,13.3645 h 0.0421 l 7.93166,17.1222 15.50238,-3.9692 c -0.49547,-0.8753 -0.96256,-1.761 -1.37843,-2.6812 -1.14068,-2.7446 -1.76022,-5.755 -1.76022,-8.9094 0,-12.8767 10.47864,-23.30799 23.41264,-23.30799 z m 6.55312,5.67959 40.52724,43.2384 16.96593,1.5412 -52.16992,-42.8589 -5.32303,-1.9212 z m -59.23377,9.564 12.10951,48.72789 13.57255,6.27052 -22.2892,-52.10621 -3.39317,-2.8924 z m 108.19845,40.8328 c -16.65874,0 -30.17807,13.45891 -30.17807,30.04331 0,16.5843 13.51933,30.022 30.17807,30.022 16.65874,0 30.15666,-13.4377 30.15666,-30.022 0,-16.5844 -13.49792,-30.04331 -30.15666,-30.04331 z M 109.7978,1001.3349 c -16.658737,0 -30.178047,13.4588 -30.178047,30.0433 0,16.5842 13.51931,30.0219 30.178047,30.0219 16.65875,0 30.15668,-13.4382 30.15668,-30.0219 0,-16.5845 -13.49793,-30.0433 -30.15668,-30.0433 z m 85.25208,2.5546 c 2.67567,18.0615 13.42991,31.6995 26.99695,32.3866 3.61843,0.1833 7.15984,-0.5497 10.45505,-2.0901 -4.69388,5.6276 -11.9049,9.0566 -19.80749,8.6557 -13.30977,-0.6742 -23.56021,-11.9582 -22.88273,-25.2084 0.26664,-5.2164 2.19699,-9.9519 5.23816,-13.7446 z m -104.512097,13.5118 c 2.67567,18.0616 13.429907,31.6997 26.996947,32.3866 3.61842,0.1834 7.15985,-0.5495 10.45505,-2.0901 -4.69383,5.6277 -11.9049,9.0567 -19.80749,8.6565 -13.309757,-0.6744 -23.560197,-11.9582 -22.882727,-25.2086 0.26664,-5.2164 2.19711,-9.9518 5.23817,-13.7445 z" />
        </g>
      </g>
    </g>
    <text
       id="text4266"
       style="line-height:0%;font-family:'Plantagenet Cherokee';fill:#000000"
       xml:space="preserve"
       transform="translate(0,62.362)"
       y="748.57141"
       x="552.85712">            </text>
  </g>
  <metadata
     id="metadata11">
    <rdf:RDF>
      <cc:Work>
        <dc:format>image/svg+xml</dc:format>
        <dc:type
           rdf:resource="http://purl.org/dc/dcmitype/StillImage" />
        <cc:license
           rdf:resource="http://creativecommons.org/publicdomain/zero/1.0/" />
        <dc:publisher>
          <cc:Agent
             rdf:about="http://openclipart.org/">
            <dc:title>Openclipart</dc:title>
          </cc:Agent>
        </dc:publisher>
        <dc:title>Binoculars</dc:title>
        <dc:date>2012-06-13T11:41:51</dc:date>
        <dc:description>binoculars icon</dc:description>
        <dc:source>https://openclipart.org/detail/170639/binoculars-by-last-dino-170639</dc:source>
        <dc:creator>
          <cc:Agent>
            <dc:title>Last-Dino</dc:title>
          </cc:Agent>
        </dc:creator>
        <dc:subject>
          <rdf:Bag>
            <rdf:li>b/w</rdf:li>
            <rdf:li>binocular</rdf:li>
            <rdf:li>binoculars</rdf:li>
            <rdf:li>birdwatching</rdf:li>
            <rdf:li>black</rdf:li>
            <rdf:li>bw</rdf:li>
            <rdf:li>find</rdf:li>
            <rdf:li>icon</rdf:li>
            <rdf:li>look</rdf:li>
            <rdf:li>looking</rdf:li>
            <rdf:li>mono</rdf:li>
            <rdf:li>monochrome</rdf:li>
            <rdf:li>optic</rdf:li>
            <rdf:li>search</rdf:li>
            <rdf:li>searching</rdf:li>
            <rdf:li>watching</rdf:li>
            <rdf:li>white</rdf:li>
          </rdf:Bag>
        </dc:subject>
      </cc:Work>
      <cc:License
         rdf:about="http://creativecommons.org/publicdomain/zero/1.0/">
        <cc:permits
           rdf:resource="http://creativecommons.org/ns#Reproduction" />
        <cc:permits
           rdf:resource="http://creativecommons.org/ns#Distribution" />
        <cc:permits
           rdf:resource="http://creativecommons.org/ns#DerivativeWorks" />
      </cc:License>
    </rdf:RDF>
  </metadata>
</svg>
